<svg width="39" height="41" viewBox="0 0 39 41" fill="none" xmlns="http://www.w3.org/2000/svg">
<g id="facebook" clip-path="url(#clip0_1_167)">
<g id="Group">
<path id="Vector" d="M19.2469 40.468C29.7204 40.468 38.211 31.4307 38.211 20.2826C38.211 9.13449 29.7204 0.097168 19.2469 0.097168C8.77329 0.097168 0.282776 9.13449 0.282776 20.2826C0.282776 31.4307 8.77329 40.468 19.2469 40.468Z" fill="#3B5998"/>
<path id="Vector_2" d="M24.0144 21.0727H20.6305V34.2682H15.5036V21.0727H13.0652V16.4353H15.5036V13.4344C15.5036 11.2884 16.4613 7.92798 20.6762 7.92798L24.4739 7.94489V12.4463H21.7184C21.2664 12.4463 20.6309 12.6867 20.6309 13.7104V16.4396H24.4624L24.0144 21.0727Z" fill="white"/>
</g>
</g>
<defs>
<clipPath id="clip0_1_167">
<rect width="37.9282" height="40.3709" fill="white" transform="translate(0.282776 0.097168)"/>
</clipPath>
</defs>
</svg>
