<svg width="39" height="41" viewBox="0 0 39 41" fill="none" xmlns="http://www.w3.org/2000/svg">
<g id="linkedin" clip-path="url(#clip0_1_176)">
<g id="Group">
<path id="Vector" d="M19.8172 40.4677C30.2908 40.4677 38.7813 31.4304 38.7813 20.2823C38.7813 9.13419 30.2908 0.0968628 19.8172 0.0968628C9.3436 0.0968628 0.853088 9.13419 0.853088 20.2823C0.853088 31.4304 9.3436 40.4677 19.8172 40.4677Z" fill="#007AB9"/>
<g id="Group_2">
<path id="Vector_2" d="M31.148 21.9065V30.2286H26.6151V22.4643C26.6151 20.5147 25.9606 19.1834 24.3193 19.1834C23.0669 19.1834 22.3228 20.0797 21.9942 20.9476C21.8749 21.2578 21.8441 21.6885 21.8441 22.1235V30.2282H17.3108C17.3108 30.2282 17.3717 17.0781 17.3108 15.7168H21.8445V17.7732C21.8353 17.7894 21.8225 17.8053 21.8144 17.8207H21.8445V17.7732C22.4469 16.7866 23.5212 15.3761 25.9298 15.3761C28.9121 15.3761 31.148 17.4501 31.148 21.9065ZM12.5686 8.72186C11.018 8.72186 10.0035 9.80529 10.0035 11.2288C10.0035 12.622 10.9886 13.7367 12.5091 13.7367H12.5385C14.1196 13.7367 15.1027 12.622 15.1027 11.2288C15.0726 9.80529 14.1196 8.72186 12.5686 8.72186ZM10.2729 30.2286H14.8045V15.7168H10.2729V30.2286Z" fill="#F1F2F2"/>
</g>
</g>
</g>
<defs>
<clipPath id="clip0_1_176">
<rect width="37.9282" height="40.3709" fill="white" transform="translate(0.853088 0.097168)"/>
</clipPath>
</defs>
</svg>
