<svg width="38" height="41" viewBox="0 0 38 41" fill="none" xmlns="http://www.w3.org/2000/svg">
<g id="twitter" clip-path="url(#clip0_1_171)">
<g id="Group">
<path id="Vector" d="M19.0322 40.4677C29.5057 40.4677 37.9961 31.4304 37.9961 20.2824C37.9961 9.13441 29.5057 0.097168 19.0322 0.097168C8.55873 0.097168 0.0682983 9.13441 0.0682983 20.2824C0.0682983 31.4304 8.55873 40.4677 19.0322 40.4677Z" fill="#55ACEE"/>
<g id="Group_2">
<path id="Vector_2" d="M30.6482 14.6037C29.8355 14.9873 28.9614 15.2467 28.0446 15.3626C28.9806 14.7657 29.699 13.8211 30.038 12.6938C29.1622 13.2469 28.1916 13.6481 27.1595 13.8643C26.3327 12.927 25.1546 12.3412 23.85 12.3412C21.3471 12.3412 19.3171 14.5019 19.3171 17.166C19.3171 17.5442 19.3574 17.9123 19.4351 18.2656C15.6679 18.0645 12.3276 16.1438 10.0917 13.2238C9.70163 13.9363 9.47785 14.7657 9.47785 15.6497C9.47785 17.3233 10.2787 18.8007 11.4943 19.6657C10.7516 19.6409 10.0522 19.4239 9.44134 19.0616C9.441 19.0821 9.441 19.1026 9.441 19.1227C9.441 21.4605 11.0041 23.4104 13.0774 23.8533C12.6974 23.9641 12.2962 24.0228 11.8834 24.0228C11.5907 24.0228 11.307 23.9929 11.0305 23.9368C11.6072 25.8532 13.2809 27.2482 15.2649 27.2874C13.7133 28.5817 11.759 29.3528 9.6347 29.3528C9.26961 29.3528 8.90789 29.3301 8.55396 29.2852C10.5589 30.6546 12.9422 31.4531 15.5019 31.4531C23.8396 31.4531 28.3992 24.1012 28.3992 17.7248C28.3992 17.5158 28.3948 17.3074 28.386 17.1009C29.2724 16.4208 30.0407 15.5713 30.6482 14.6037Z" fill="#F1F2F2"/>
</g>
</g>
</g>
<defs>
<clipPath id="clip0_1_171">
<rect width="37.9282" height="40.3709" fill="white" transform="translate(0.0679321 0.097168)"/>
</clipPath>
</defs>
</svg>
